<svg width="235" height="72" viewBox="0 0 235 72" fill="none" xmlns="http://www.w3.org/2000/svg">
<path d="M52.3295 30.7386H43.8068C43.6932 29.8636 43.4602 29.0739 43.108 28.3693C42.7557 27.6648 42.2898 27.0625 41.7102 26.5625C41.1307 26.0625 40.4432 25.6818 39.6477 25.4205C38.8636 25.1477 37.9943 25.0114 37.0398 25.0114C35.3466 25.0114 33.8864 25.4261 32.6591 26.2557C31.4432 27.0852 30.5057 28.2841 29.8466 29.8523C29.1989 31.4205 28.875 33.3182 28.875 35.5455C28.875 37.8636 29.2045 39.8068 29.8636 41.375C30.5341 42.9318 31.4716 44.108 32.6761 44.9034C33.892 45.6875 35.3295 46.0795 36.9886 46.0795C37.9205 46.0795 38.767 45.9602 39.5284 45.7216C40.3011 45.483 40.9773 45.1364 41.5568 44.6818C42.1477 44.2159 42.6307 43.6534 43.0057 42.9943C43.392 42.3239 43.6591 41.5682 43.8068 40.7273L52.3295 40.7784C52.1818 42.3239 51.733 43.8466 50.983 45.3466C50.2443 46.8466 49.2273 48.2159 47.9318 49.4545C46.6364 50.6818 45.0568 51.6591 43.1932 52.3864C41.3409 53.1136 39.2159 53.4773 36.8182 53.4773C33.6591 53.4773 30.8295 52.7841 28.3295 51.3977C25.8409 50 23.875 47.9659 22.4318 45.2955C20.9886 42.625 20.267 39.375 20.267 35.5455C20.267 31.7045 21 28.4489 22.4659 25.7784C23.9318 23.108 25.9148 21.0795 28.4148 19.6932C30.9148 18.3068 33.7159 17.6136 36.8182 17.6136C38.9318 17.6136 40.8864 17.9091 42.6818 18.5C44.4773 19.0795 46.0568 19.9318 47.4205 21.0568C48.7841 22.1705 49.892 23.5398 50.7443 25.1648C51.5966 26.7898 52.125 28.6477 52.3295 30.7386ZM64.5384 53.4432C62.8679 53.4432 61.3849 53.1648 60.0895 52.608C58.8054 52.0398 57.7884 51.1875 57.0384 50.0511C56.2997 48.9034 55.9304 47.4659 55.9304 45.7386C55.9304 44.2841 56.1861 43.0568 56.6974 42.0568C57.2088 41.0568 57.9134 40.2443 58.8111 39.6193C59.7088 38.9943 60.7429 38.5227 61.9134 38.2045C63.0838 37.875 64.3338 37.6534 65.6634 37.5398C67.152 37.4034 68.3509 37.2614 69.2599 37.1136C70.169 36.9545 70.8281 36.733 71.2372 36.4489C71.6577 36.1534 71.8679 35.7386 71.8679 35.2045V35.1193C71.8679 34.2443 71.5668 33.5682 70.9645 33.0909C70.3622 32.6136 69.5497 32.375 68.527 32.375C67.4247 32.375 66.5384 32.6136 65.8679 33.0909C65.1974 33.5682 64.7713 34.2273 64.5895 35.0682L56.902 34.7955C57.1293 33.2045 57.7145 31.7841 58.6577 30.5341C59.6122 29.2727 60.919 28.2841 62.5781 27.5682C64.2486 26.8409 66.2543 26.4773 68.5952 26.4773C70.2656 26.4773 71.8054 26.6761 73.2145 27.0739C74.6236 27.4602 75.8509 28.0284 76.8963 28.7784C77.9418 29.517 78.7486 30.4261 79.3168 31.5057C79.8963 32.5852 80.1861 33.8182 80.1861 35.2045V53H72.3452V49.3523H72.1406C71.6747 50.2386 71.0781 50.9886 70.3509 51.6023C69.6349 52.2159 68.7884 52.6761 67.8111 52.983C66.8452 53.2898 65.7543 53.4432 64.5384 53.4432ZM67.1122 47.9886C68.0099 47.9886 68.8168 47.8068 69.5327 47.4432C70.2599 47.0795 70.8395 46.5795 71.2713 45.9432C71.7031 45.2955 71.919 44.5455 71.919 43.6932V41.2045C71.6804 41.3295 71.3906 41.4432 71.0497 41.5455C70.7202 41.6477 70.3565 41.7443 69.9588 41.8352C69.5611 41.9261 69.152 42.0057 68.7315 42.0739C68.3111 42.142 67.9077 42.2045 67.5213 42.2614C66.7372 42.3864 66.0668 42.5795 65.5099 42.8409C64.9645 43.1023 64.544 43.4432 64.2486 43.8636C63.9645 44.2727 63.8224 44.7614 63.8224 45.3295C63.8224 46.1932 64.1293 46.8523 64.7429 47.3068C65.3679 47.7614 66.1577 47.9886 67.1122 47.9886ZM93.6179 38.0682V53H85.2827V26.8182H93.2088V31.625H93.4986C94.0781 30.0227 95.0668 28.767 96.4645 27.858C97.8622 26.9375 99.527 26.4773 101.459 26.4773C103.3 26.4773 104.896 26.892 106.249 27.7216C107.612 28.5398 108.669 29.6875 109.419 31.1648C110.18 32.6307 110.555 34.3466 110.544 36.3125V53H102.209V37.9489C102.22 36.4943 101.851 35.358 101.101 34.5398C100.362 33.7216 99.3338 33.3125 98.0156 33.3125C97.1406 33.3125 96.3679 33.5057 95.6974 33.892C95.0384 34.267 94.527 34.8068 94.1634 35.5114C93.8111 36.2159 93.6293 37.0682 93.6179 38.0682ZM132.801 62.8182V48.7557H132.631C132.278 49.5625 131.778 50.3182 131.131 51.0227C130.483 51.7273 129.67 52.2955 128.693 52.7273C127.727 53.1591 126.585 53.375 125.267 53.375C123.335 53.375 121.58 52.875 120 51.875C118.42 50.875 117.159 49.375 116.216 47.375C115.273 45.375 114.801 42.892 114.801 39.9261C114.801 36.8466 115.29 34.3125 116.267 32.3239C117.244 30.3352 118.523 28.8636 120.102 27.9091C121.693 26.9545 123.403 26.4773 125.233 26.4773C126.608 26.4773 127.784 26.7159 128.761 27.1932C129.739 27.6591 130.545 28.2614 131.182 29C131.818 29.7386 132.301 30.5057 132.631 31.3011H132.886V26.8182H141.136V62.8182H132.801ZM128.165 46.8807C129.176 46.8807 130.04 46.5966 130.756 46.0284C131.472 45.4489 132.023 44.6364 132.409 43.5909C132.795 42.5455 132.989 41.3182 132.989 39.9091C132.989 38.4773 132.795 37.2443 132.409 36.2102C132.034 35.1761 131.483 34.3807 130.756 33.8239C130.04 33.267 129.176 32.9886 128.165 32.9886C127.131 32.9886 126.256 33.2727 125.54 33.8409C124.824 34.4091 124.278 35.2102 123.903 36.2443C123.54 37.2784 123.358 38.5 123.358 39.9091C123.358 41.3182 123.545 42.5455 123.92 43.5909C124.295 44.6364 124.835 45.4489 125.54 46.0284C126.256 46.5966 127.131 46.8807 128.165 46.8807ZM163.3 41.6989V26.8182H171.618V53H163.675V48.125H163.402C162.822 49.7273 161.834 51 160.436 51.9432C159.05 52.875 157.374 53.3409 155.408 53.3409C153.624 53.3409 152.055 52.9318 150.703 52.1136C149.351 51.2955 148.3 50.1534 147.55 48.6875C146.8 47.2102 146.419 45.483 146.408 43.5057V26.8182H154.743V41.8693C154.754 43.2898 155.129 44.4091 155.868 45.2273C156.607 46.0455 157.612 46.4545 158.885 46.4545C159.714 46.4545 160.459 46.2727 161.118 45.9091C161.788 45.5341 162.317 44.9943 162.703 44.2898C163.101 43.5739 163.3 42.7102 163.3 41.6989ZM199.781 34.8125L192.128 35.017C192.048 34.4716 191.832 33.9886 191.48 33.5682C191.128 33.1364 190.668 32.8011 190.099 32.5625C189.543 32.3125 188.895 32.1875 188.156 32.1875C187.19 32.1875 186.366 32.3807 185.685 32.767C185.014 33.1534 184.685 33.6761 184.696 34.3352C184.685 34.8466 184.889 35.2898 185.31 35.6648C185.741 36.0398 186.509 36.3409 187.611 36.5682L192.656 37.5227C195.27 38.0227 197.213 38.8523 198.486 40.0114C199.77 41.1705 200.418 42.7045 200.429 44.6136C200.418 46.4091 199.884 47.9716 198.827 49.3011C197.781 50.6307 196.349 51.6648 194.531 52.4034C192.713 53.1307 190.634 53.4943 188.293 53.4943C184.554 53.4943 181.605 52.7273 179.446 51.1932C177.298 49.6477 176.071 47.5795 175.764 44.9886L183.997 44.7841C184.179 45.7386 184.651 46.4659 185.412 46.9659C186.173 47.4659 187.145 47.7159 188.327 47.7159C189.395 47.7159 190.264 47.517 190.935 47.1193C191.605 46.7216 191.946 46.1932 191.957 45.5341C191.946 44.9432 191.685 44.4716 191.173 44.1193C190.662 43.7557 189.861 43.4716 188.77 43.267L184.202 42.3977C181.577 41.9205 179.622 41.0398 178.338 39.7557C177.054 38.4602 176.418 36.8125 176.429 34.8125C176.418 33.0625 176.884 31.5682 177.827 30.3295C178.77 29.0795 180.111 28.125 181.849 27.4659C183.588 26.8068 185.639 26.4773 188.003 26.4773C191.548 26.4773 194.344 27.2216 196.389 28.7102C198.435 30.1875 199.565 32.2216 199.781 34.8125Z" fill="#535353"/>
<path d="M209.22 53.4943C207.993 53.4943 206.942 53.0625 206.067 52.1989C205.203 51.3352 204.777 50.2898 204.788 49.0625C204.777 47.858 205.203 46.8295 206.067 45.9773C206.942 45.1136 207.993 44.6818 209.22 44.6818C210.379 44.6818 211.402 45.1136 212.288 45.9773C213.186 46.8295 213.641 47.858 213.652 49.0625C213.641 49.8807 213.425 50.625 213.004 51.2955C212.595 51.9659 212.055 52.5 211.385 52.8977C210.726 53.2955 210.004 53.4943 209.22 53.4943Z" fill="#07A6FF"/>
<path d="M148.453 70L146.262 62H147.004L148.816 68.8789H148.879L150.691 62H151.535L153.348 68.8789H153.41L155.223 62H155.969L153.777 70H152.996L151.141 63.2148H151.09L149.234 70H148.453ZM159.012 70.125C158.452 70.125 157.967 69.9948 157.559 69.7344C157.15 69.4714 156.833 69.1081 156.609 68.6445C156.388 68.1784 156.277 67.6419 156.277 67.0352C156.277 66.431 156.388 65.8945 156.609 65.4258C156.833 64.9544 157.142 64.5859 157.535 64.3203C157.931 64.0521 158.388 63.918 158.906 63.918C159.232 63.918 159.546 63.9779 159.848 64.0977C160.15 64.2148 160.421 64.3958 160.66 64.6406C160.902 64.8828 161.094 65.1888 161.234 65.5586C161.375 65.9258 161.445 66.3607 161.445 66.8633V67.207H156.758V66.5937H160.734C160.734 66.2083 160.656 65.862 160.5 65.5547C160.346 65.2448 160.132 65 159.855 64.8203C159.582 64.6406 159.266 64.5508 158.906 64.5508C158.526 64.5508 158.191 64.6523 157.902 64.8555C157.613 65.0586 157.387 65.3268 157.223 65.6602C157.061 65.9935 156.979 66.3581 156.977 66.7539V67.1211C156.977 67.5977 157.059 68.0143 157.223 68.3711C157.389 68.7253 157.625 69 157.93 69.1953C158.234 69.3906 158.595 69.4883 159.012 69.4883C159.296 69.4883 159.544 69.444 159.758 69.3555C159.974 69.2669 160.155 69.1484 160.301 69C160.449 68.849 160.561 68.6836 160.637 68.5039L161.297 68.7187C161.206 68.9714 161.056 69.2044 160.848 69.418C160.642 69.6315 160.384 69.8034 160.074 69.9336C159.767 70.0612 159.413 70.125 159.012 70.125ZM163.673 62V70H162.978V62H163.673ZM167.856 70.125C167.32 70.125 166.853 69.9909 166.454 69.7227C166.058 69.4544 165.751 69.0872 165.532 68.6211C165.313 68.1549 165.204 67.6237 165.204 67.0273C165.204 66.4258 165.315 65.8906 165.536 65.4219C165.76 64.9531 166.07 64.5859 166.466 64.3203C166.862 64.0521 167.321 63.918 167.845 63.918C168.246 63.918 168.609 63.9961 168.935 64.1523C169.26 64.306 169.528 64.5234 169.739 64.8047C169.953 65.0833 170.087 65.4089 170.142 65.7812H169.438C169.366 65.4427 169.19 65.1536 168.911 64.9141C168.635 64.6719 168.284 64.5508 167.856 64.5508C167.474 64.5508 167.135 64.6549 166.841 64.8633C166.547 65.069 166.316 65.3568 166.149 65.7266C165.985 66.0937 165.903 66.5195 165.903 67.0039C165.903 67.4909 165.984 67.9219 166.146 68.2969C166.307 68.6693 166.534 68.9609 166.825 69.1719C167.119 69.3828 167.463 69.4883 167.856 69.4883C168.122 69.4883 168.364 69.4388 168.583 69.3398C168.804 69.2383 168.989 69.0951 169.138 68.9102C169.289 68.7253 169.39 68.5052 169.442 68.25H170.146C170.093 68.612 169.965 68.9349 169.759 69.2188C169.556 69.5 169.291 69.7214 168.966 69.8828C168.643 70.0443 168.273 70.125 167.856 70.125ZM173.968 70.125C173.45 70.125 172.991 69.9935 172.593 69.7305C172.197 69.4674 171.887 69.1042 171.663 68.6406C171.439 68.1745 171.327 67.6367 171.327 67.0273C171.327 66.4128 171.439 65.8724 171.663 65.4062C171.887 64.9375 172.197 64.5729 172.593 64.3125C172.991 64.0495 173.45 63.918 173.968 63.918C174.486 63.918 174.943 64.0495 175.339 64.3125C175.735 64.5755 176.045 64.9401 176.269 65.4062C176.495 65.8724 176.608 66.4128 176.608 67.0273C176.608 67.6367 176.496 68.1745 176.272 68.6406C176.049 69.1042 175.737 69.4674 175.339 69.7305C174.943 69.9935 174.486 70.125 173.968 70.125ZM173.968 69.4883C174.384 69.4883 174.737 69.3763 175.026 69.1523C175.315 68.9284 175.534 68.6302 175.683 68.2578C175.834 67.8854 175.909 67.4753 175.909 67.0273C175.909 66.5794 175.834 66.168 175.683 65.793C175.534 65.418 175.315 65.1172 175.026 64.8906C174.737 64.6641 174.384 64.5508 173.968 64.5508C173.554 64.5508 173.201 64.6641 172.909 64.8906C172.62 65.1172 172.4 65.418 172.249 65.793C172.101 66.168 172.026 66.5794 172.026 67.0273C172.026 67.4753 172.101 67.8854 172.249 68.2578C172.4 68.6302 172.62 68.9284 172.909 69.1523C173.198 69.3763 173.551 69.4883 173.968 69.4883ZM178.135 70V64H178.811V64.9219H178.873C178.993 64.612 179.192 64.3685 179.471 64.1914C179.752 64.0117 180.089 63.9219 180.482 63.9219C180.896 63.9219 181.236 64.0195 181.502 64.2148C181.77 64.4076 181.971 64.6732 182.104 65.0117H182.154C182.29 64.6784 182.51 64.4141 182.814 64.2187C183.122 64.0208 183.494 63.9219 183.932 63.9219C184.489 63.9219 184.929 64.0977 185.252 64.4492C185.575 64.7982 185.736 65.3086 185.736 65.9805V70H185.041V65.9805C185.041 65.5065 184.92 65.151 184.678 64.9141C184.436 64.6771 184.117 64.5586 183.721 64.5586C183.262 64.5586 182.91 64.6992 182.662 64.9805C182.415 65.2617 182.291 65.6185 182.291 66.0508V70H181.58V65.918C181.58 65.5117 181.467 65.1836 181.24 64.9336C181.014 64.6836 180.695 64.5586 180.283 64.5586C180.007 64.5586 179.758 64.6263 179.537 64.7617C179.318 64.8971 179.145 65.0859 179.018 65.3281C178.893 65.5677 178.83 65.8437 178.83 66.1562V70H178.135ZM190.003 70.125C189.443 70.125 188.959 69.9948 188.55 69.7344C188.141 69.4714 187.825 69.1081 187.601 68.6445C187.379 68.1784 187.269 67.6419 187.269 67.0352C187.269 66.431 187.379 65.8945 187.601 65.4258C187.825 64.9544 188.133 64.5859 188.526 64.3203C188.922 64.0521 189.379 63.918 189.897 63.918C190.223 63.918 190.537 63.9779 190.839 64.0977C191.141 64.2148 191.412 64.3958 191.651 64.6406C191.894 64.8828 192.085 65.1888 192.226 65.5586C192.366 65.9258 192.437 66.3607 192.437 66.8633V67.207H187.749V66.5937H191.726C191.726 66.2083 191.647 65.862 191.491 65.5547C191.338 65.2448 191.123 65 190.847 64.8203C190.573 64.6406 190.257 64.5508 189.897 64.5508C189.517 64.5508 189.183 64.6523 188.894 64.8555C188.604 65.0586 188.378 65.3268 188.214 65.6602C188.052 65.9935 187.97 66.3581 187.968 66.7539V67.1211C187.968 67.5977 188.05 68.0143 188.214 68.3711C188.381 68.7253 188.616 69 188.921 69.1953C189.226 69.3906 189.586 69.4883 190.003 69.4883C190.287 69.4883 190.535 69.444 190.749 69.3555C190.965 69.2669 191.146 69.1484 191.292 69C191.44 68.849 191.552 68.6836 191.628 68.5039L192.288 68.7187C192.197 68.9714 192.047 69.2044 191.839 69.418C191.633 69.6315 191.375 69.8034 191.065 69.9336C190.758 70.0612 190.404 70.125 190.003 70.125ZM199.426 64V64.6055H196.563V64H199.426ZM197.457 62.5625H198.156V68.4336C198.156 68.6836 198.199 68.8802 198.285 69.0234C198.371 69.1641 198.483 69.2643 198.621 69.3242C198.759 69.3815 198.906 69.4102 199.063 69.4102C199.154 69.4102 199.232 69.4049 199.297 69.3945C199.362 69.3815 199.419 69.3685 199.469 69.3555L199.617 69.9844C199.549 70.0104 199.466 70.0339 199.367 70.0547C199.268 70.0781 199.146 70.0898 199 70.0898C198.745 70.0898 198.499 70.0339 198.262 69.9219C198.027 69.8099 197.835 69.6432 197.684 69.4219C197.533 69.2005 197.457 68.9258 197.457 68.5977V62.5625ZM203.272 70.125C202.754 70.125 202.296 69.9935 201.897 69.7305C201.502 69.4674 201.192 69.1042 200.968 68.6406C200.744 68.1745 200.632 67.6367 200.632 67.0273C200.632 66.4128 200.744 65.8724 200.968 65.4062C201.192 64.9375 201.502 64.5729 201.897 64.3125C202.296 64.0495 202.754 63.918 203.272 63.918C203.791 63.918 204.248 64.0495 204.644 64.3125C205.039 64.5755 205.349 64.9401 205.573 65.4062C205.8 65.8724 205.913 66.4128 205.913 67.0273C205.913 67.6367 205.801 68.1745 205.577 68.6406C205.353 69.1042 205.042 69.4674 204.644 69.7305C204.248 69.9935 203.791 70.125 203.272 70.125ZM203.272 69.4883C203.689 69.4883 204.042 69.3763 204.331 69.1523C204.62 68.9284 204.839 68.6302 204.987 68.2578C205.138 67.8854 205.214 67.4753 205.214 67.0273C205.214 66.5794 205.138 66.168 204.987 65.793C204.839 65.418 204.62 65.1172 204.331 64.8906C204.042 64.6641 203.689 64.5508 203.272 64.5508C202.858 64.5508 202.506 64.6641 202.214 64.8906C201.925 65.1172 201.705 65.418 201.554 65.793C201.405 66.168 201.331 66.5794 201.331 67.0273C201.331 67.4753 201.405 67.8854 201.554 68.2578C201.705 68.6302 201.925 68.9284 202.214 69.1523C202.503 69.3763 202.856 69.4883 203.272 69.4883ZM214.346 67.707V64H215.041V70H214.346V69.0039H214.291C214.15 69.3112 213.928 69.5677 213.623 69.7734C213.318 69.9766 212.946 70.0781 212.506 70.0781C212.123 70.0781 211.783 69.9948 211.486 69.8281C211.189 69.6589 210.956 69.4115 210.787 69.0859C210.618 68.7604 210.533 68.3607 210.533 67.8867V64H211.229V67.8437C211.229 68.3125 211.367 68.6901 211.643 68.9766C211.919 69.2604 212.273 69.4023 212.705 69.4023C212.976 69.4023 213.236 69.3372 213.486 69.207C213.736 69.0768 213.942 68.8867 214.104 68.6367C214.265 68.3841 214.346 68.0742 214.346 67.707ZM220.913 65.3164L220.276 65.4961C220.214 65.3164 220.125 65.1536 220.011 65.0078C219.896 64.862 219.746 64.7461 219.562 64.6602C219.379 64.5742 219.153 64.5312 218.882 64.5312C218.476 64.5312 218.142 64.6276 217.882 64.8203C217.621 65.013 217.491 65.2617 217.491 65.5664C217.491 65.8242 217.58 66.0339 217.757 66.1953C217.937 66.3542 218.213 66.4805 218.585 66.5742L219.491 66.7969C219.994 66.9193 220.37 67.1133 220.62 67.3789C220.873 67.6445 220.999 67.9779 220.999 68.3789C220.999 68.7174 220.905 69.0182 220.718 69.2812C220.53 69.5443 220.269 69.7513 219.933 69.9023C219.599 70.0508 219.213 70.125 218.772 70.125C218.187 70.125 217.703 69.9935 217.323 69.7305C216.943 69.4648 216.7 69.082 216.593 68.582L217.261 68.418C217.347 68.7747 217.515 69.0443 217.765 69.2266C218.017 69.4089 218.349 69.5 218.761 69.5C219.222 69.5 219.59 69.3971 219.866 69.1914C220.142 68.9831 220.28 68.7227 220.28 68.4102C220.28 68.168 220.2 67.9648 220.038 67.8008C219.877 67.6341 219.632 67.5117 219.304 67.4336L218.323 67.1992C217.802 67.0742 217.417 66.8763 217.167 66.6055C216.917 66.3346 216.792 65.9987 216.792 65.5977C216.792 65.2669 216.882 64.9766 217.062 64.7266C217.241 64.474 217.489 64.276 217.804 64.1328C218.119 63.9896 218.478 63.918 218.882 63.918C219.431 63.918 219.87 64.043 220.198 64.293C220.529 64.5404 220.767 64.8815 220.913 65.3164Z" fill="black"/>
<path d="M223.076 70.0586C222.923 70.0586 222.79 70.0039 222.678 69.8945C222.568 69.7826 222.514 69.6497 222.514 69.4961C222.514 69.3398 222.568 69.207 222.678 69.0977C222.79 68.9883 222.923 68.9336 223.076 68.9336C223.232 68.9336 223.365 68.9883 223.475 69.0977C223.584 69.207 223.639 69.3398 223.639 69.4961C223.639 69.5977 223.613 69.6914 223.561 69.7773C223.511 69.8633 223.443 69.9323 223.357 69.9844C223.274 70.0339 223.18 70.0586 223.076 70.0586Z" fill="#FF0000"/>
</svg>
