<svg width="130" height="31" viewBox="0 0 130 31" fill="none" xmlns="http://www.w3.org/2000/svg">
<path d="M21.8864 9.15909H16.2045C16.1288 8.57576 15.9735 8.04924 15.7386 7.57954C15.5038 7.10985 15.1932 6.70833 14.8068 6.375C14.4205 6.04167 13.9621 5.78788 13.4318 5.61364C12.9091 5.43182 12.3295 5.34091 11.6932 5.34091C10.5644 5.34091 9.59091 5.61742 8.77273 6.17045C7.96212 6.72348 7.33712 7.52273 6.89773 8.56818C6.46591 9.61364 6.25 10.8788 6.25 12.3636C6.25 13.9091 6.4697 15.2045 6.90909 16.25C7.35606 17.2879 7.98106 18.072 8.78409 18.6023C9.5947 19.125 10.553 19.3864 11.6591 19.3864C12.2803 19.3864 12.8447 19.3068 13.3523 19.1477C13.8674 18.9886 14.3182 18.7576 14.7045 18.4545C15.0985 18.1439 15.4205 17.7689 15.6705 17.3295C15.928 16.8826 16.1061 16.3788 16.2045 15.8182L21.8864 15.8523C21.7879 16.8826 21.4886 17.8977 20.9886 18.8977C20.4962 19.8977 19.8182 20.8106 18.9545 21.6364C18.0909 22.4545 17.0379 23.1061 15.7955 23.5909C14.5606 24.0758 13.1439 24.3182 11.5455 24.3182C9.43939 24.3182 7.55303 23.8561 5.88636 22.9318C4.22727 22 2.91667 20.6439 1.95455 18.8636C0.992424 17.0833 0.511364 14.9167 0.511364 12.3636C0.511364 9.80303 1 7.63258 1.97727 5.85227C2.95455 4.07197 4.27652 2.7197 5.94318 1.79545C7.60985 0.871211 9.47727 0.40909 11.5455 0.40909C12.9545 0.40909 14.2576 0.60606 15.4545 1C16.6515 1.38636 17.7045 1.95454 18.6136 2.70454C19.5227 3.44697 20.2614 4.35985 20.8295 5.44318C21.3977 6.52652 21.75 7.76515 21.8864 9.15909ZM30.0256 24.2955C28.9119 24.2955 27.9233 24.1098 27.0597 23.7386C26.2036 23.3598 25.5256 22.7917 25.0256 22.0341C24.5331 21.2689 24.2869 20.3106 24.2869 19.1591C24.2869 18.1894 24.4574 17.3712 24.7983 16.7045C25.1392 16.0379 25.6089 15.4962 26.2074 15.0795C26.8059 14.6629 27.4953 14.3485 28.2756 14.1364C29.0559 13.9167 29.8892 13.7689 30.7756 13.6932C31.768 13.6023 32.5672 13.5076 33.1733 13.4091C33.7794 13.303 34.2188 13.1553 34.4915 12.9659C34.7718 12.7689 34.9119 12.4924 34.9119 12.1364V12.0795C34.9119 11.4962 34.7112 11.0455 34.3097 10.7273C33.9081 10.4091 33.3665 10.25 32.6847 10.25C31.9498 10.25 31.3589 10.4091 30.9119 10.7273C30.465 11.0455 30.1809 11.4848 30.0597 12.0455L24.9347 11.8636C25.0862 10.803 25.4763 9.85606 26.1051 9.02273C26.7415 8.18182 27.6127 7.52273 28.7188 7.04545C29.8324 6.56061 31.1695 6.31818 32.7301 6.31818C33.8438 6.31818 34.8703 6.45076 35.8097 6.71591C36.7491 6.97348 37.5672 7.35227 38.2642 7.85227C38.9612 8.3447 39.4991 8.95076 39.8778 9.67045C40.2642 10.3902 40.4574 11.2121 40.4574 12.1364V24H35.2301V21.5682H35.0938C34.7831 22.1591 34.3854 22.6591 33.9006 23.0682C33.4233 23.4773 32.8589 23.7841 32.2074 23.9886C31.5634 24.1932 30.8362 24.2955 30.0256 24.2955ZM31.7415 20.6591C32.34 20.6591 32.8778 20.5379 33.3551 20.2955C33.84 20.053 34.2263 19.7197 34.5142 19.2955C34.8021 18.8636 34.946 18.3636 34.946 17.7955V16.1364C34.7869 16.2197 34.5938 16.2955 34.3665 16.3636C34.1468 16.4318 33.9044 16.4962 33.6392 16.5568C33.3741 16.6174 33.1013 16.6705 32.821 16.7159C32.5407 16.7614 32.2718 16.803 32.0142 16.8409C31.4915 16.9242 31.0445 17.053 30.6733 17.2273C30.3097 17.4015 30.0294 17.6288 29.8324 17.9091C29.643 18.1818 29.5483 18.5076 29.5483 18.8864C29.5483 19.4621 29.7528 19.9015 30.1619 20.2045C30.5786 20.5076 31.1051 20.6591 31.7415 20.6591ZM49.4119 14.0455V24H43.8551V6.54545H49.1392V9.75H49.3324C49.7188 8.68182 50.3778 7.8447 51.3097 7.23864C52.2415 6.625 53.3513 6.31818 54.6392 6.31818C55.8665 6.31818 56.9309 6.5947 57.8324 7.14773C58.7415 7.69318 59.446 8.45833 59.946 9.44318C60.4536 10.4205 60.7036 11.5644 60.696 12.875V24H55.1392V13.9659C55.1468 12.9962 54.9006 12.2386 54.4006 11.6932C53.9081 11.1477 53.2225 10.875 52.3438 10.875C51.7604 10.875 51.2453 11.0038 50.7983 11.2614C50.3589 11.5114 50.018 11.8712 49.7756 12.3409C49.5407 12.8106 49.4195 13.3788 49.4119 14.0455ZM75.5341 30.5455V21.1705H75.4205C75.1856 21.7083 74.8523 22.2121 74.4205 22.6818C73.9886 23.1515 73.447 23.5303 72.7955 23.8182C72.1515 24.1061 71.3902 24.25 70.5114 24.25C69.2235 24.25 68.053 23.9167 67 23.25C65.947 22.5833 65.1061 21.5833 64.4773 20.25C63.8485 18.9167 63.5341 17.2614 63.5341 15.2841C63.5341 13.2311 63.8598 11.5417 64.5114 10.2159C65.1629 8.89015 66.0152 7.90909 67.0682 7.27273C68.1288 6.63636 69.2689 6.31818 70.4886 6.31818C71.4053 6.31818 72.1894 6.47727 72.8409 6.79545C73.4924 7.10606 74.0303 7.50758 74.4545 8C74.8788 8.49242 75.2008 9.00379 75.4205 9.53409H75.5909V6.54545H81.0909V30.5455H75.5341ZM72.4432 19.9205C73.1174 19.9205 73.6932 19.7311 74.1705 19.3523C74.6477 18.9659 75.0152 18.4242 75.2727 17.7273C75.5303 17.0303 75.6591 16.2121 75.6591 15.2727C75.6591 14.3182 75.5303 13.4962 75.2727 12.8068C75.0227 12.1174 74.6553 11.5871 74.1705 11.2159C73.6932 10.8447 73.1174 10.6591 72.4432 10.6591C71.7538 10.6591 71.1705 10.8485 70.6932 11.2273C70.2159 11.6061 69.8523 12.1402 69.6023 12.8295C69.3598 13.5189 69.2386 14.3333 69.2386 15.2727C69.2386 16.2121 69.3636 17.0303 69.6136 17.7273C69.8636 18.4242 70.2235 18.9659 70.6932 19.3523C71.1705 19.7311 71.7538 19.9205 72.4432 19.9205ZM95.8665 16.4659V6.54545H101.412V24H96.1165V20.75H95.9347C95.5483 21.8182 94.8892 22.6667 93.9574 23.2955C93.0331 23.9167 91.9157 24.2273 90.6051 24.2273C89.4157 24.2273 88.3703 23.9545 87.4688 23.4091C86.5672 22.8636 85.8665 22.1023 85.3665 21.125C84.8665 20.1402 84.6127 18.9886 84.6051 17.6705V6.54545H90.1619V16.5795C90.1695 17.5265 90.4195 18.2727 90.9119 18.8182C91.4044 19.3636 92.0748 19.6364 92.9233 19.6364C93.4763 19.6364 93.9725 19.5152 94.4119 19.2727C94.8589 19.0227 95.2112 18.6629 95.4688 18.1932C95.7339 17.7159 95.8665 17.1402 95.8665 16.4659ZM120.188 11.875L115.085 12.0114C115.032 11.6477 114.888 11.3258 114.653 11.0455C114.419 10.7576 114.112 10.5341 113.733 10.375C113.362 10.2083 112.93 10.125 112.438 10.125C111.794 10.125 111.244 10.2538 110.79 10.5114C110.343 10.7689 110.123 11.1174 110.131 11.5568C110.123 11.8977 110.259 12.1932 110.54 12.4432C110.828 12.6932 111.339 12.8939 112.074 13.0455L115.438 13.6818C117.18 14.0152 118.475 14.5682 119.324 15.3409C120.18 16.1136 120.612 17.1364 120.619 18.4091C120.612 19.6061 120.256 20.6477 119.551 21.5341C118.854 22.4205 117.9 23.1098 116.688 23.6023C115.475 24.0871 114.089 24.3295 112.528 24.3295C110.036 24.3295 108.07 23.8182 106.631 22.7955C105.199 21.7652 104.381 20.3864 104.176 18.6591L109.665 18.5227C109.786 19.1591 110.1 19.6439 110.608 19.9773C111.116 20.3106 111.763 20.4773 112.551 20.4773C113.263 20.4773 113.843 20.3447 114.29 20.0795C114.737 19.8144 114.964 19.4621 114.972 19.0227C114.964 18.6288 114.79 18.3144 114.449 18.0795C114.108 17.8371 113.574 17.6477 112.847 17.5114L109.801 16.9318C108.051 16.6136 106.748 16.0265 105.892 15.1705C105.036 14.3068 104.612 13.2083 104.619 11.875C104.612 10.7083 104.922 9.71212 105.551 8.88636C106.18 8.05303 107.074 7.41667 108.233 6.97727C109.392 6.53788 110.759 6.31818 112.335 6.31818C114.699 6.31818 116.563 6.81439 117.926 7.80682C119.29 8.79167 120.044 10.1477 120.188 11.875Z" fill="#535353"/>
<path d="M126.48 24.3295C125.662 24.3295 124.961 24.0417 124.378 23.4659C123.802 22.8902 123.518 22.1932 123.526 21.375C123.518 20.572 123.802 19.8864 124.378 19.3182C124.961 18.7424 125.662 18.4545 126.48 18.4545C127.253 18.4545 127.935 18.7424 128.526 19.3182C129.124 19.8864 129.427 20.572 129.435 21.375C129.427 21.9205 129.283 22.4167 129.003 22.8636C128.73 23.3106 128.37 23.6667 127.923 23.9318C127.484 24.197 127.003 24.3295 126.48 24.3295Z" fill="#07A6FF"/>
</svg>
