<svg width="227" height="65" viewBox="0 0 227 65" fill="none" xmlns="http://www.w3.org/2000/svg">
<path d="M36.0227 40V16.7273H45.3409C47.053 16.7273 48.4811 16.9811 49.625 17.4886C50.7689 17.9962 51.6288 18.7008 52.2045 19.6023C52.7803 20.4962 53.0682 21.5265 53.0682 22.6932C53.0682 23.6023 52.8864 24.4015 52.5227 25.0909C52.1591 25.7727 51.6591 26.3333 51.0227 26.7727C50.3939 27.2045 49.6742 27.5114 48.8636 27.6932V27.9205C49.75 27.9583 50.5795 28.2083 51.3523 28.6705C52.1326 29.1326 52.7652 29.7803 53.25 30.6136C53.7348 31.4394 53.9773 32.4242 53.9773 33.5682C53.9773 34.803 53.6705 35.9053 53.0568 36.875C52.4508 37.8371 51.553 38.5985 50.3636 39.1591C49.1742 39.7197 47.7083 40 45.9659 40H36.0227ZM40.9432 35.9773H44.9545C46.3258 35.9773 47.3258 35.7159 47.9545 35.1932C48.5833 34.6629 48.8977 33.9583 48.8977 33.0795C48.8977 32.4356 48.7424 31.8674 48.4318 31.375C48.1212 30.8826 47.678 30.4962 47.1023 30.2159C46.5341 29.9356 45.8561 29.7955 45.0682 29.7955H40.9432V35.9773ZM40.9432 26.4659H44.5909C45.2652 26.4659 45.8636 26.3485 46.3864 26.1136C46.9167 25.8712 47.3333 25.5303 47.6364 25.0909C47.947 24.6515 48.1023 24.125 48.1023 23.5114C48.1023 22.6705 47.803 21.9924 47.2045 21.4773C46.6136 20.9621 45.7727 20.7045 44.6818 20.7045H40.9432V26.4659ZM61.929 16.7273V40H57.0881V16.7273H61.929ZM73.6932 40.3409C71.928 40.3409 70.4015 39.9659 69.1136 39.2159C67.8333 38.4583 66.8447 37.4053 66.1477 36.0568C65.4508 34.7008 65.1023 33.1288 65.1023 31.3409C65.1023 29.5379 65.4508 27.9621 66.1477 26.6136C66.8447 25.2576 67.8333 24.2045 69.1136 23.4545C70.4015 22.697 71.928 22.3182 73.6932 22.3182C75.4583 22.3182 76.9811 22.697 78.2614 23.4545C79.5492 24.2045 80.5417 25.2576 81.2386 26.6136C81.9356 27.9621 82.2841 29.5379 82.2841 31.3409C82.2841 33.1288 81.9356 34.7008 81.2386 36.0568C80.5417 37.4053 79.5492 38.4583 78.2614 39.2159C76.9811 39.9659 75.4583 40.3409 73.6932 40.3409ZM73.7159 36.5909C74.5189 36.5909 75.1894 36.3636 75.7273 35.9091C76.2652 35.447 76.6705 34.8182 76.9432 34.0227C77.2235 33.2273 77.3636 32.322 77.3636 31.3068C77.3636 30.2917 77.2235 29.3864 76.9432 28.5909C76.6705 27.7955 76.2652 27.1667 75.7273 26.7045C75.1894 26.2424 74.5189 26.0114 73.7159 26.0114C72.9053 26.0114 72.2235 26.2424 71.6705 26.7045C71.125 27.1667 70.7121 27.7955 70.4318 28.5909C70.1591 29.3864 70.0227 30.2917 70.0227 31.3068C70.0227 32.322 70.1591 33.2273 70.4318 34.0227C70.7121 34.8182 71.125 35.447 71.6705 35.9091C72.2235 36.3636 72.9053 36.5909 73.7159 36.5909ZM93.2955 46.9091C91.7273 46.9091 90.3826 46.6932 89.2614 46.2614C88.1477 45.8371 87.2614 45.2576 86.6023 44.5227C85.9432 43.7879 85.5152 42.9621 85.3182 42.0455L89.7955 41.4432C89.9318 41.7917 90.1477 42.1174 90.4432 42.4205C90.7386 42.7235 91.1288 42.9659 91.6136 43.1477C92.1061 43.3371 92.7045 43.4318 93.4091 43.4318C94.4621 43.4318 95.3295 43.1742 96.0114 42.6591C96.7008 42.1515 97.0455 41.2992 97.0455 40.1023V36.9091H96.8409C96.6288 37.3939 96.3106 37.8523 95.8864 38.2841C95.4621 38.7159 94.9167 39.0682 94.25 39.3409C93.5833 39.6136 92.7879 39.75 91.8636 39.75C90.553 39.75 89.3598 39.447 88.2841 38.8409C87.2159 38.2273 86.3636 37.2917 85.7273 36.0341C85.0985 34.7689 84.7841 33.1705 84.7841 31.2386C84.7841 29.2614 85.1061 27.6098 85.75 26.2841C86.3939 24.9583 87.25 23.9659 88.3182 23.3068C89.3939 22.6477 90.572 22.3182 91.8523 22.3182C92.8295 22.3182 93.6477 22.4848 94.3068 22.8182C94.9659 23.1439 95.4962 23.553 95.8977 24.0455C96.3068 24.5303 96.6212 25.0076 96.8409 25.4773H97.0227V22.5455H101.83V40.1705C101.83 41.6553 101.466 42.8977 100.739 43.8977C100.011 44.8977 99.0038 45.6477 97.7159 46.1477C96.4356 46.6553 94.9621 46.9091 93.2955 46.9091ZM93.3977 36.1136C94.178 36.1136 94.8371 35.9205 95.375 35.5341C95.9205 35.1402 96.3371 34.5795 96.625 33.8523C96.9205 33.1174 97.0682 32.2386 97.0682 31.2159C97.0682 30.1932 96.9242 29.3068 96.6364 28.5568C96.3485 27.7992 95.9318 27.2121 95.3864 26.7955C94.8409 26.3788 94.178 26.1705 93.3977 26.1705C92.6023 26.1705 91.9318 26.3864 91.3864 26.8182C90.8409 27.2424 90.428 27.8333 90.1477 28.5909C89.8674 29.3485 89.7273 30.2235 89.7273 31.2159C89.7273 32.2235 89.8674 33.0947 90.1477 33.8295C90.4356 34.5568 90.8485 35.1212 91.3864 35.5227C91.9318 35.9167 92.6023 36.1136 93.3977 36.1136ZM108.511 40.2955C107.761 40.2955 107.117 40.0303 106.58 39.5C106.049 38.9621 105.784 38.3182 105.784 37.5682C105.784 36.8258 106.049 36.1894 106.58 35.6591C107.117 35.1288 107.761 34.8636 108.511 34.8636C109.239 34.8636 109.875 35.1288 110.42 35.6591C110.966 36.1894 111.239 36.8258 111.239 37.5682C111.239 38.0682 111.11 38.5265 110.852 38.9432C110.602 39.3523 110.273 39.6818 109.864 39.9318C109.455 40.1742 109.004 40.2955 108.511 40.2955Z" fill="black"/>
<path d="M127.54 28.2727V37H125.724V28.2727H127.54ZM131.977 37.1278C131.304 37.1278 130.724 36.9915 130.238 36.7188C129.755 36.4432 129.383 36.054 129.122 35.5511C128.86 35.0455 128.73 34.4474 128.73 33.7571C128.73 33.0838 128.86 32.4929 129.122 31.9844C129.383 31.4759 129.751 31.0795 130.225 30.7955C130.703 30.5114 131.262 30.3693 131.904 30.3693C132.336 30.3693 132.738 30.4389 133.11 30.5781C133.485 30.7145 133.812 30.9205 134.091 31.196C134.372 31.4716 134.591 31.8182 134.747 32.2358C134.903 32.6506 134.981 33.1364 134.981 33.6932V34.1918H129.454V33.0668H133.272C133.272 32.8054 133.216 32.5739 133.102 32.3722C132.988 32.1705 132.831 32.0128 132.629 31.8991C132.43 31.7827 132.199 31.7244 131.934 31.7244C131.659 31.7244 131.414 31.7884 131.201 31.9162C130.991 32.0412 130.826 32.2102 130.707 32.4233C130.588 32.6335 130.527 32.8679 130.524 33.1264V34.196C130.524 34.5199 130.583 34.7997 130.703 35.0355C130.825 35.2713 130.997 35.4531 131.218 35.581C131.44 35.7088 131.703 35.7727 132.007 35.7727C132.208 35.7727 132.393 35.7443 132.561 35.6875C132.728 35.6307 132.872 35.5455 132.991 35.4318C133.11 35.3182 133.201 35.179 133.264 35.0142L134.943 35.125C134.858 35.5284 134.683 35.8807 134.419 36.1818C134.157 36.4801 133.819 36.7131 133.404 36.8807C132.993 37.0455 132.517 37.1278 131.977 37.1278ZM138.032 37.1236C137.615 37.1236 137.243 37.0511 136.916 36.9062C136.589 36.7585 136.331 36.5412 136.14 36.2543C135.953 35.9645 135.859 35.6037 135.859 35.1719C135.859 34.8082 135.926 34.5028 136.059 34.2557C136.193 34.0085 136.375 33.8097 136.605 33.6591C136.835 33.5085 137.096 33.3949 137.389 33.3182C137.684 33.2415 137.994 33.1875 138.318 33.1562C138.699 33.1165 139.005 33.0795 139.238 33.0455C139.471 33.0085 139.64 32.9545 139.745 32.8835C139.85 32.8125 139.903 32.7074 139.903 32.5682V32.5426C139.903 32.2727 139.818 32.0639 139.647 31.9162C139.48 31.7685 139.241 31.6946 138.931 31.6946C138.605 31.6946 138.345 31.767 138.152 31.9119C137.958 32.054 137.831 32.233 137.768 32.4489L136.089 32.3125C136.174 31.9148 136.342 31.571 136.592 31.2812C136.842 30.9886 137.164 30.7642 137.559 30.608C137.957 30.4489 138.417 30.3693 138.94 30.3693C139.304 30.3693 139.652 30.4119 139.984 30.4972C140.319 30.5824 140.616 30.7145 140.875 30.8935C141.136 31.0724 141.342 31.3026 141.493 31.5838C141.643 31.8622 141.718 32.196 141.718 32.5852V37H139.997V36.0923H139.946C139.841 36.2969 139.7 36.4773 139.524 36.6335C139.348 36.7869 139.136 36.9077 138.889 36.9957C138.642 37.081 138.356 37.1236 138.032 37.1236ZM138.552 35.8707C138.819 35.8707 139.055 35.8182 139.26 35.7131C139.464 35.6051 139.625 35.4602 139.741 35.2784C139.858 35.0966 139.916 34.8906 139.916 34.6605V33.9659C139.859 34.0028 139.781 34.0369 139.681 34.0682C139.585 34.0966 139.475 34.1236 139.353 34.1491C139.231 34.1719 139.109 34.1932 138.987 34.2131C138.865 34.2301 138.754 34.2457 138.654 34.2599C138.441 34.2912 138.255 34.3409 138.096 34.4091C137.937 34.4773 137.814 34.5696 137.725 34.6861C137.637 34.7997 137.593 34.9418 137.593 35.1122C137.593 35.3594 137.683 35.5483 137.862 35.679C138.044 35.8068 138.274 35.8707 138.552 35.8707ZM143.127 37V30.4545H144.887V31.5966H144.955C145.074 31.1903 145.275 30.8835 145.556 30.6761C145.837 30.4659 146.161 30.3608 146.527 30.3608C146.618 30.3608 146.716 30.3665 146.821 30.3778C146.926 30.3892 147.019 30.4048 147.098 30.4247V32.0355C147.013 32.0099 146.895 31.9872 146.745 31.9673C146.594 31.9474 146.456 31.9375 146.331 31.9375C146.064 31.9375 145.826 31.9957 145.615 32.1122C145.408 32.2259 145.243 32.3849 145.121 32.5895C145.002 32.794 144.942 33.0298 144.942 33.2969V37H143.127ZM149.852 33.2159V37H148.037V30.4545H149.767V31.6094H149.844C149.989 31.2287 150.232 30.9276 150.572 30.706C150.913 30.4815 151.327 30.3693 151.812 30.3693C152.267 30.3693 152.663 30.4688 153.001 30.6676C153.339 30.8665 153.602 31.1506 153.79 31.5199C153.977 31.8864 154.071 32.3239 154.071 32.8324V37H152.256V33.1562C152.259 32.7557 152.156 32.4432 151.949 32.2188C151.741 31.9915 151.456 31.8778 151.092 31.8778C150.848 31.8778 150.632 31.9304 150.445 32.0355C150.26 32.1406 150.115 32.294 150.01 32.4957C149.908 32.6946 149.855 32.9347 149.852 33.2159ZM159.57 37L157.789 30.4545H159.626L160.64 34.8523H160.7L161.756 30.4545H163.559L164.633 34.8267H164.688L165.685 30.4545H167.518L165.741 37H163.819L162.694 32.8835H162.613L161.488 37H159.57ZM168.486 37V30.4545H170.301V37H168.486ZM169.398 29.6108C169.128 29.6108 168.897 29.5213 168.703 29.3423C168.513 29.1605 168.418 28.9432 168.418 28.6903C168.418 28.4403 168.513 28.2259 168.703 28.0469C168.897 27.8651 169.128 27.7741 169.398 27.7741C169.668 27.7741 169.898 27.8651 170.088 28.0469C170.282 28.2259 170.378 28.4403 170.378 28.6903C170.378 28.9432 170.282 29.1605 170.088 29.3423C169.898 29.5213 169.668 29.6108 169.398 29.6108ZM175.237 30.4545V31.8182H171.295V30.4545H175.237ZM172.19 28.8864H174.006V34.9886C174.006 35.1562 174.031 35.2869 174.082 35.3807C174.134 35.4716 174.205 35.5355 174.295 35.5724C174.389 35.6094 174.497 35.6278 174.619 35.6278C174.705 35.6278 174.79 35.6207 174.875 35.6065C174.96 35.5895 175.026 35.5767 175.071 35.5682L175.357 36.919C175.266 36.9474 175.138 36.9801 174.973 37.017C174.808 37.0568 174.608 37.081 174.372 37.0895C173.935 37.1065 173.551 37.0483 173.222 36.9148C172.895 36.7812 172.641 36.5739 172.459 36.2926C172.277 36.0114 172.188 35.6562 172.19 35.2273V28.8864ZM178.376 33.2159V37H176.56V28.2727H178.325V31.6094H178.401C178.549 31.223 178.788 30.9205 179.117 30.7017C179.447 30.4801 179.86 30.3693 180.357 30.3693C180.812 30.3693 181.208 30.4688 181.546 30.6676C181.887 30.8636 182.151 31.1463 182.339 31.5156C182.529 31.8821 182.623 32.321 182.62 32.8324V37H180.805V33.1562C180.808 32.7528 180.705 32.4389 180.498 32.2145C180.293 31.9901 180.006 31.8778 179.637 31.8778C179.39 31.8778 179.171 31.9304 178.981 32.0355C178.793 32.1406 178.646 32.294 178.538 32.4957C178.433 32.6946 178.379 32.9347 178.376 33.2159ZM191.023 34.2131V30.4545H192.839V37H191.096V35.8111H191.028C190.88 36.1946 190.634 36.5028 190.29 36.7358C189.95 36.9687 189.533 37.0852 189.042 37.0852C188.604 37.0852 188.219 36.9858 187.887 36.7869C187.555 36.5881 187.295 36.3054 187.107 35.9389C186.923 35.5724 186.829 35.1335 186.826 34.6222V30.4545H188.641V34.2983C188.644 34.6847 188.748 34.9901 188.952 35.2145C189.157 35.4389 189.431 35.5511 189.775 35.5511C189.994 35.5511 190.198 35.5014 190.388 35.402C190.579 35.2997 190.732 35.1491 190.849 34.9503C190.968 34.7514 191.026 34.5057 191.023 34.2131ZM199.737 32.321L198.075 32.4233C198.047 32.2812 197.985 32.1534 197.892 32.0398C197.798 31.9233 197.674 31.831 197.521 31.7628C197.37 31.6918 197.19 31.6562 196.98 31.6562C196.699 31.6562 196.461 31.7159 196.268 31.8352C196.075 31.9517 195.978 32.108 195.978 32.304C195.978 32.4602 196.041 32.5923 196.166 32.7003C196.291 32.8082 196.505 32.8949 196.809 32.9602L197.994 33.1989C198.63 33.3295 199.105 33.5398 199.417 33.8295C199.73 34.1193 199.886 34.5 199.886 34.9716C199.886 35.4006 199.76 35.777 199.507 36.1009C199.257 36.4247 198.913 36.6776 198.475 36.8594C198.041 37.0384 197.539 37.1278 196.971 37.1278C196.105 37.1278 195.414 36.9474 194.9 36.5866C194.389 36.223 194.089 35.7287 194.001 35.1037L195.787 35.0099C195.841 35.2741 195.971 35.4759 196.179 35.6151C196.386 35.7514 196.652 35.8196 196.975 35.8196C197.294 35.8196 197.549 35.7585 197.743 35.6364C197.939 35.5114 198.038 35.3509 198.041 35.1548C198.038 34.9901 197.968 34.8551 197.832 34.75C197.696 34.642 197.485 34.5597 197.201 34.5028L196.068 34.277C195.429 34.1491 194.953 33.9276 194.64 33.6122C194.331 33.2969 194.176 32.8949 194.176 32.4062C194.176 31.9858 194.289 31.6236 194.517 31.3196C194.747 31.0156 195.069 30.7812 195.484 30.6165C195.902 30.4517 196.39 30.3693 196.95 30.3693C197.777 30.3693 198.427 30.544 198.902 30.8935C199.379 31.2429 199.657 31.7187 199.737 32.321Z" fill="black"/>
<path d="M117.5 11.5V52.5" stroke="black" stroke-width="2"/>
</svg>
